HIERARCHY
ROOT root
{
	OFFSET	0	13.1	24.9
	CHANNELS 6  Xposition Yposition Zposition Xrotation Yrotation Zrotation
	JOINT spine_1
	{
		OFFSET	0	9.99999	0
		CHANNELS 3  Xrotation Yrotation Zrotation
		JOINT spine_2
		{
			OFFSET	0	112	-10
			CHANNELS 3  Xrotation Yrotation Zrotation
			JOINT spine_3
			{
				OFFSET	0	206.5	19.3
				CHANNELS 3  Xrotation Yrotation Zrotation
				JOINT spine_4
				{
					OFFSET	0	110.4	14.6
					CHANNELS 3  Xrotation Yrotation Zrotation
					JOINT neck_1
					{
						OFFSET	0	71.8	-50.3
						CHANNELS 3  Xrotation Yrotation Zrotation
						JOINT neck_2
						{
							OFFSET	0	86.2	-25.8
							CHANNELS 3  Xrotation Yrotation Zrotation
							JOINT head_ee
							{
								OFFSET	0	179.8	-8.7
								CHANNELS 3  Xrotation Yrotation Zrotation
								End Site
								{
									OFFSET	1	0	0
								}
							}
						}
					}
					JOINT left_clavicle
					{
						OFFSET	-43.2	22.4	-70.8
						CHANNELS 3  Xrotation Yrotation Zrotation
						JOINT left_shoulder
						{
							OFFSET	-93.9	-5.79999	48.7
							CHANNELS 3  Xrotation Yrotation Zrotation
							JOINT left_elbow
							{
								OFFSET	-291.4	-30.8	15.2
								CHANNELS 3  Xrotation Yrotation Zrotation
								JOINT left_lowarm_twist
								{
									OFFSET	-110.7	-3.89999	13.6
									CHANNELS 3  Xrotation Yrotation Zrotation
									JOINT left_hand
									{
										OFFSET	-110.7	-3.89999	13.6
										CHANNELS 3  Xrotation Yrotation Zrotation
										JOINT left_ee
										{
											OFFSET	-80.8	-5.10001	12.1
											CHANNELS 3  Xrotation Yrotation Zrotation
											End Site
											{
												OFFSET	1	0	0
											}
										}
									}
								}
							}
						}
					}
					JOINT right_clavicle
					{
						OFFSET	43.2	22.4	-70.8
						CHANNELS 3  Xrotation Yrotation Zrotation
						JOINT right_shoulder
						{
							OFFSET	93.9	-5.79999	48.7
							CHANNELS 3  Xrotation Yrotation Zrotation
							JOINT right_elbow
							{
								OFFSET	291.4	-30.8	15.2
								CHANNELS 3  Xrotation Yrotation Zrotation
								JOINT right_lowarm_twist
								{
									OFFSET	110.7	-3.89999	13.6
									CHANNELS 3  Xrotation Yrotation Zrotation
									JOINT right_hand
									{
										OFFSET	110.7	-3.89999	13.6
										CHANNELS 3  Xrotation Yrotation Zrotation
										JOINT right_ee
										{
											OFFSET	80.8	-5.10001	12.1
											CHANNELS 3  Xrotation Yrotation Zrotation
											End Site
											{
												OFFSET	1	0	0
											}
										}
									}
								}
							}
						}
					}
				}
			}
		}
	}
	JOINT left_hip
	{
		OFFSET	-82.8	-127.5	0.300001
		CHANNELS 3  Xrotation Yrotation Zrotation
		JOINT left_knee
		{
			OFFSET	-28.2	-396.7	2.2
			CHANNELS 3  Xrotation Yrotation Zrotation
			JOINT left_ankle
			{
				OFFSET	-11.7	-411.3	35.4
				CHANNELS 3  Xrotation Yrotation Zrotation
				JOINT left_toes
				{
					OFFSET	0	-60	-88.6
					CHANNELS 3  Xrotation Yrotation Zrotation
					JOINT left_foot_ee
					{
						OFFSET	-22.5	-16.5	-42.2
						CHANNELS 3  Xrotation Yrotation Zrotation
						End Site
						{
							OFFSET	1	0	0
						}
					}
				}
			}
		}
	}
	JOINT right_hip
	{
		OFFSET	82.8	-127.5	0.300001
		CHANNELS 3  Xrotation Yrotation Zrotation
		JOINT right_knee
		{
			OFFSET	28.2	-396.7	2.2
			CHANNELS 3  Xrotation Yrotation Zrotation
			JOINT right_ankle
			{
				OFFSET	11.7	-411.3	35.4
				CHANNELS 3  Xrotation Yrotation Zrotation
				JOINT right_toes
				{
					OFFSET	0	-60	-88.6
					CHANNELS 3  Xrotation Yrotation Zrotation
					JOINT right_foot_ee
					{
						OFFSET	22.5	-16.5	-42.2
						CHANNELS 3  Xrotation Yrotation Zrotation
						End Site
						{
							OFFSET	1	0	0
						}
					}
				}
			}
		}
	}
}
MOTION
Frames: 9
Frame Time: 0.02
2625.88 671.815 -527.158 -171.739 -43.9912 179.202 3.62221 0.579132 4.34747 3.63267 0.301589 4.37543 3.65067 -0.34746 4.37204 3.62418 0.346704 4.3721 -2.46553 12.5549 -0.682632 -2.18619 23.3045 0.978006 -0.0 0.0 -0.0 2.55339 21.3171 6.13802 -59.3236 -57.162 49.6325 0.393917 -11.0419 0.0380753 -76.3917 -7.36257 5.31376 -1.49671 20.275 -0.711705 -0.0 0.0 -0.0 9.06715 -1.66025 -17.679 7.7801 32.5943 -80.0397 1.31034 32.9862 -0.387985 67.2722 2.46234 7.73623 -1.1463 -6.67573 4.69195 0.0 0.0 0.0 29.3818 18.2304 -6.68311 3.63331 -0.166581 -0.532499 -4.30743 28.9978 0.678961 23.2765 -0.0 -0.0 -0.0 0.0 -0.0 11.461 4.00744 17.7143 -37.5421 0.317851 -5.65111 19.3741 24.4739 3.11431 25.7984 -0.0 -0.0 0.0 0.0 0.0 
2657.89 669.239 -522.481 -170.995 -42.6367 -179.347 3.66431 0.555378 4.02149 3.67326 0.298569 4.04862 3.68996 -0.299335 4.04857 3.66726 0.34328 4.04508 -2.58867 12.0671 -0.56737 -2.34097 22.3432 1.05876 -0.0 0.0 -0.0 2.60765 21.0602 6.20657 -58.7637 -57.4448 49.6381 0.437758 -12.2355 0.0469201 -76.3985 -7.36344 5.31372 -1.54682 20.4251 -0.938919 -0.0 0.0 -0.0 8.67763 -1.82283 -16.8932 4.79593 33.215 -78.5648 1.31186 33.0165 -0.38881 67.1074 2.44587 7.72297 -1.08853 -7.4451 3.97098 0.0 0.0 0.0 29.6792 19.1702 -7.04234 2.63002 -0.117205 -0.386505 -4.20793 29.7583 0.666518 22.7931 -0.0 -0.0 -0.0 0.0 -0.0 10.3035 3.89081 18.2981 -36.6395 0.266933 -5.52209 20.4596 23.8056 3.24605 25.6694 -0.0 -0.0 0.0 0.0 0.0 
2681.73 674.382 -524.178 -170.379 -41.3595 -178.854 3.77805 0.486282 3.71907 3.78571 0.248812 3.74243 3.79796 -0.296546 3.73896 3.77858 0.29725 3.7389 -2.53743 11.7284 -0.788545 -2.29395 21.8931 0.772682 -0.0 0.0 -0.0 2.79893 20.2354 6.45637 -57.9861 -57.8445 48.8158 0.472832 -13.1828 0.0546367 -76.4105 -7.36497 5.31366 -1.58013 20.4895 -1.10587 -0.0 0.0 -0.0 8.18434 -1.63189 -15.9185 2.87606 33.7896 -77.1377 1.30732 32.9258 -0.386339 66.9341 2.42859 7.70897 -1.03856 -7.98978 3.40385 0.0 0.0 0.0 29.7602 19.7289 -7.12683 1.9097 -0.0833381 -0.281177 -4.42727 30.0515 0.702933 22.2771 -0.0 -0.0 -0.0 0.0 -0.0 10.0241 4.58986 19.1923 -35.7573 0.219141 -5.39523 21.13 23.3954 3.32566 25.5436 -0.0 -0.0 0.0 0.0 0.0 
2707.52 679.002 -526.72 -169.851 -41.1669 -178.33 3.7346 0.53592 3.48426 3.7413 0.313262 3.51125 3.75709 -0.201589 3.51942 3.73998 0.356418 3.50714 -1.99795 12.2046 -0.775343 -1.70643 22.6799 0.749229 -0.0 0.0 -0.0 2.39964 19.7278 5.84657 -54.1681 -59.7725 49.2091 0.487761 -13.5838 0.0580925 -76.8137 -7.41641 5.31129 -1.47916 21.1091 -0.22665 -0.0 0.0 -0.0 8.55848 2.49275 -16.7592 -0.660509 32.8783 -74.3614 1.12418 29.112 -0.291914 67.3549 2.47062 7.74287 -0.977905 -7.74175 3.12023 0.0 0.0 0.0 29.4901 20.1495 -6.13743 0.770712 -0.0325032 -0.113803 -2.57367 29.2881 0.405173 22.2221 -0.0 -0.0 -0.0 0.0 -0.0 9.8727 5.88378 19.3206 -35.396 0.200136 -5.34308 21.8336 21.4848 3.35914 24.9087 -0.0 -0.0 0.0 0.0 0.0 
2731.75 693.516 -537.127 172.169 -45.6223 172.894 -2.21454 0.242229 1.15412 -2.21382 0.168303 1.16719 -2.2095 -0.126075 1.1725 -2.21141 0.0606689 1.1777 1.54798 19.1613 3.85515 2.39719 30.7149 5.6595 -0.0 0.0 -0.0 8.20419 16.1836 15.0293 -20.6957 -9.05296 64.6334 0.786826 -21.2943 0.147923 23.2054 0.225943 -2.93547 3.52267 -22.2782 13.7776 -0.0 0.0 -0.0 9.67851 12.851 -19.0631 10.4822 1.765 -65.0454 0.716974 19.5534 -0.123544 85.2583 4.45748 8.87797 2.47848 -22.5783 -24.2026 0.0 0.0 0.0 11.5122 -42.2573 -3.22575 -9.73868 0.276839 1.46715 38.3855 26.4253 -5.05662 -38.7001 0.0 0.0 -0.0 0.0 -0.0 -2.20843 16.2922 11.3872 -41.6118 0.57248 -6.22242 39.4741 6.37772 4.90817 38.5255 -0.0 -0.0 0.0 0.0 0.0 
2760.04 700.877 -531.897 171.888 -46.5055 173.072 -2.45841 0.272462 1.05069 -2.45782 0.205055 1.0659 -2.45319 -0.0699755 1.08318 -2.45481 0.101961 1.08064 -0.531424 21.0073 4.98753 0.290776 33.754 7.45612 -0.0 0.0 -0.0 8.44523 17.5561 15.2819 -20.0394 -11.5879 63.0576 0.997945 -26.3051 0.2332 22.6474 0.234536 -2.86471 4.29453 -24.1666 17.9405 -0.0 0.0 -0.0 10.2028 14.5144 -20.164 5.78719 -3.09677 -61.6745 0.763716 20.7227 -0.139638 85.1818 4.44831 8.87448 2.37273 -24.674 -24.0277 0.0 0.0 0.0 13.3723 -45.5315 -0.327294 -14.8992 0.321513 2.25743 40.2984 26.0514 -5.23212 -37.3303 0.0 0.0 -0.0 0.0 -0.0 -1.98328 20.987 9.96282 -43.6599 0.71587 -6.50287 38.9224 4.14959 4.82552 39.8074 -0.0 -0.0 0.0 0.0 0.0 
2777.29 703.541 -535.859 171.638 -47.8377 172.38 -2.38349 0.33671 0.82643 -2.38316 0.283441 0.84618 -2.37841 0.062391 0.890203 -2.37946 0.202194 0.86918 -1.50938 20.9394 5.35746 -0.800388 33.641 8.08435 -0.0 0.0 -0.0 8.56412 16.9714 15.5428 -18.4946 -12.8051 62.9221 1.16571 -30.0037 0.312402 22.8928 0.230842 -2.89584 4.46466 -25.4503 18.3417 -0.0 0.0 -0.0 10.0155 13.8358 -19.7735 4.73882 -3.48851 -61.4088 0.644093 17.6961 -0.100265 84.8018 4.40281 8.85695 2.16579 -24.1664 -22.5997 0.0 0.0 0.0 14.5404 -45.4714 2.12558 -15.0158 0.3217 2.27531 41.3134 26.209 -5.33447 -37.2879 0.0 0.0 -0.0 0.0 -0.0 -1.62563 24.2938 9.66145 -45.9539 0.888321 -6.81081 37.5274 3.41877 4.69066 40.105 -0.0 -0.0 0.0 0.0 0.0 
2801.2 707.126 -541.607 172.354 -48.7942 173.115 -2.28517 0.245151 0.561899 -2.28502 0.208899 0.57636 -2.28266 0.0588445 0.610218 -2.28314 0.154477 0.593267 -2.37354 20.7593 5.59271 -1.77001 33.3922 8.52971 -0.0 0.0 -0.0 8.75001 16.6981 15.8824 -15.8931 -13.0449 62.5164 1.2888 -32.5541 0.376326 23.0482 0.228434 -2.91555 4.39067 -25.3228 17.919 -0.0 0.0 -0.0 9.85651 12.7376 -19.4587 3.5448 -4.22407 -61.8808 0.606697 16.7278 -0.0891994 84.3244 4.34582 8.83451 2.09912 -24.4673 -22.2572 0.0 0.0 0.0 15.7016 -45.6744 3.74584 -14.7516 0.321225 2.23478 40.5666 26.1049 -5.25976 -37.5091 0.0 0.0 -0.0 0.0 -0.0 -1.17625 27.6271 9.40983 -45.9776 0.89017 -6.81395 35.7626 2.13639 4.51141 40.1387 -0.0 -0.0 0.0 0.0 0.0 
2820.33 711.678 -547.205 172.828 -49.306 173.386 -2.13272 0.153789 0.314072 -2.13268 0.133492 0.323221 -2.13184 0.0497365 0.346147 -2.13199 0.10378 0.333949 -3.93005 20.3931 6.71018 -3.50412 32.3271 10.024 -0.0 0.0 -0.0 8.86834 16.4615 16.1076 -12.0761 -13.8635 61.6504 1.48046 -36.2531 0.484672 23.2491 0.225241 -2.94102 4.36639 -24.9435 17.9768 -0.0 0.0 -0.0 9.82861 11.2721 -19.4359 2.33241 -4.86772 -60.7139 0.580509 16.0437 -0.0818114 83.7355 4.27576 8.80616 2.07236 -25.031 -22.2307 0.0 0.0 0.0 17.5502 -45.519 6.04461 -14.2481 0.319804 2.15754 39.3326 26.1775 -5.14243 -37.9883 0.0 0.0 -0.0 0.0 -0.0 -0.559387 30.8139 9.27675 -45.2717 0.835747 -6.71995 33.703 0.1536 4.29318 40.1142 -0.0 -0.0 0.0 0.0 0.0 
